<?xml version="1.0" encoding="UTF-8"?>
<svg width="483.22" height="551.43" enable-background="new 0 0 483.2226563 551.4306641" viewBox="0 0 483.2226563 551.4306641" xmlns="http://www.w3.org/2000/svg">
 <path d="m161.99,98.124c24.963-2.3047 44.357-23.811 44.357-48.966 0-27.075-22.09-49.158-49.16-49.158s-49.157,22.083-49.157,49.158c0,8.2568 2.3037,16.706 6.1445,23.811l17.516,246.47 180.4.04883 73.991,173.37 97.145-38.098-15.043-35.82-54.366,19.625-71.591-165.28-167.73,1.127-2.3027-31.213 121.42.04834v-46.183l-126.05-.04932-5.57-98.896z" fill-rule="evenodd"/>
 <path d="m343.42 451.59c-30.447 60.188-94.175 99.84-162.15 99.84-99.84 0-181.27-81.43-181.27-181.27 0-70.101 42.485-135.24 105.88-164.12l4.1025 53.538c-37.497 23.628-60.612 66.262-60.612 110.95 0 72.427 59.071 131.5 131.5 131.5 66.262 0 122.76-50.852 130.47-116.09l32.08 65.65z" fill-rule="evenodd"/>
</svg>
