<?xml version='1.0' encoding='utf-8'?>
<svg xmlns="http://www.w3.org/2000/svg" enable-background="new 0 0 640 480" version="1.1" viewBox="0 0 640 480">
<style type="text/css">
	.st0{fill:#8DFFD6;}
	.st1{fill:#191919;}
	.st2{fill:#282828;}
	.st3{fill:#0C0C0C;}
	.st4{fill:#232323;}
	.st5{fill:#1C1C1C;}
	.st6{fill:#161616;}
</style>
<circle class="st0" cx="333.2" cy="240" r="223.5"/>
<path class="st1" d="m145 240s70 69 105 62 150.5 4 155.5-9.5 55-19.5 56-11.5 0 36 0 36-31.5 14.3-47.5 18.7-161.5 3.8-168.5 7.3-100.1-36.5-105.5-57 5-46 5-46z"/>
<path class="st2" d="m259.3 146.3s-32.7 14.7-35 22-8 71 3.3 78 60 15.7 76.3 5.7-44.6-105.7-44.6-105.7z"/>
<path class="st3" d="m258.7 137.7s-30.3-3.7-44.7 20 2 97.3 2 97.3 9.3 23 25.7 21.7c16.3-1.3 56-7.8 66.7-5.4s34.7 11.1 43.3 8.4 29.3-11.7 28.3-14.7 42-3.3 42-3.3 0 12.7-3.7 16.7-2.7 15.7-4.7 17.7-12.7 3.7-8.7 7.3c4 3.7 11.3 10.7 12.3 17s3 5.7 10 2 19.3-5.7 18.7-11.3 7.7-34.3 7.7-34.3l-54-41.3-140.9-97.8z"/>
<path class="st4" d="m339.7 76s-78.3 37.3-81.7 44c-3.3 6.7-2 23.7-3.3 26s-5 3-4.7 9.7 5.3 63.3 7.3 67.3-1 25 32.7 28.7 89 19.6 89 19.6 31.3-14.6 48.3-1.6-3.3 22.3-3.3 22.3 18.3 17 22.3 28.7 2.7 14.3 6 15 79.3-42.6 78.8-46.5c-0.4-3.9-191.4-213.2-191.4-213.2z"/>
<path class="st5" d="m491.7 277.3s-77.7-41-87.7-48.3-47.7-31.3-52.3-40.3c-4.7-9-13.3-53.3-15.3-60.7-2-7.3-6-45.7 0-50.5s26.7 0.2 26.7 0.2l165.3 114.3s13.4 71.7 12.1 77.4c-1.4 5.7-3.7 24-16.7 20.7-13.1-3.4-32.1-12.8-32.1-12.8z"/>
<path class="st4" d="m371.7 81.7s124.3 70 138 80.3 17.6 21.3 18.9 24.7 11.4 66.3 11.4 75.3c0 8.5 1.7 11.7-5.3 7.3-7-4.3-72.3-40.3-80-44.7-7.7-4.3-78-40.3-80-45s-3.3-7.3-8.7-37.7-10.7-56.7-8.3-60.3c2.3-3.7 2.3-4.7 5.3-4s8.7 4.1 8.7 4.1z"/>
<path class="st6" d="m262.3 168.3s-77.7 30.7-102.3 50.3-20.7 18.7-23.7 26.7-2.7 39 3.7 40.7 72-46.7 76-46 50.3-20.3 53.5-22.7c3.2-2.3-2.2-51-7.2-49z"/>
</svg>